<svg width="1249.108154" height="929.609192" viewBox="0 0 1249.11 929.609" fill="none" xmlns="http://www.w3.org/2000/svg" xmlns:xlink="http://www.w3.org/1999/xlink">
	<desc>
			Created with Pixso.
	</desc>
	<defs/>
	<path id="Vector" d="M777.51 865.425C737.579 859.214 698.13 873.71 658.13 879.47C609.972 886.406 564.016 903.591 515.363 903.179C455.124 902.67 379.461 920.595 338.137 876.763C296.873 832.995 363.951 742.055 322.428 698.533C249.069 621.643 99.2473 648.149 37.4993 561.658C-10.3054 494.697 -18.9023 361.868 50.2344 317.268C153.983 250.339 314.538 384.711 417.473 316.536C488.295 269.629 385.118 135.006 432.188 64.2928C469.885 7.66223 558.615 -8.77765 625.401 4.16876C696.488 17.9489 725.118 123.066 796.551 134.924C878.738 148.567 920.131 100.315 995.913 134.924C1063.29 165.697 1016.82 290.874 1054.79 354.477C1091.51 415.987 1225.76 446.39 1243.98 515.672C1261.98 584.135 1228.36 575.451 1208.16 643.297C1189.42 706.228 1180.39 774.978 1139 825.949C1098.17 876.228 1040.57 921.916 976.188 928.947C906.477 936.56 846.802 876.205 777.51 865.425Z" fill="#5A9F5C" fill-opacity="1.000000" fill-rule="evenodd"/>
</svg>
